<svg width="1000" height="1000" xmlns="http://www.w3.org/2000/svg">
 <metadata>Svg Vector Icons : http://www.onlinewebfonts.com/icon</metadata>

 <g>
  <title>background</title>
  <rect fill="none" id="canvas_background" height="402" width="582" y="-1" x="-1"/>
 </g>
 <g>
  <title>Layer 1</title>
  <path fill="#ffffff" id="svg_3" d="m748.28001,16.99999c-10.57,11.62 -15.32,20.34 -21.66,40.42l-6.08,18.49l-4.49,-21.4c-4.75,-22.46 -12.41,-34.08 -22.19,-34.08c-8.98,0 -14.8,10.3 -22.19,39.1c-4.75,19.28 -7.13,25.36 -7.4,19.02c0,-17.96 -18.76,-32.49 -33.02,-25.89c-10.3,4.49 -21.4,23.78 -26.42,45.17c-6.34,27.74 -5.55,26.16 -12.94,22.72c-13.74,-6.34 -29.33,12.68 -34.34,42.01l-2.91,17.70001l-9.51,-0.79c-7.93,-0.79 -10.83,0.53 -16.38,7.4c-6.08,7.13 -12.42,22.72 -12.42,30.64c0,1.85 -4.49,8.72 -10.3,15.59c-5.55,6.6 -11.62,17.17 -13.47,23.25c-1.85,6.08 -6.87,18.23 -11.36,26.95c-7.13,13.74 -8.45,18.49 -8.45,37.25c0,17.7 -1.06,22.46 -6.08,28.53c-3.17,4.23 -7.13,12.42 -8.45,18.49c-3.96,15.59 -7.93,22.46 -14,24.31c-2.91,1.06 -8.72,5.28 -12.68,9.78c-6.87,7.66 -7.66,7.66 -16.12,4.49c-15.32,-6.34 -86.65001,-82.69 -126.81001,-135.79c-28.8,-38.31 -44.38,-78.46 -56.54,-145.04001c-11.36,-63.4 -11.89,-66.05 -14.79,-63.14c-4.49,4.49 -3.17,44.38 1.85,66.05c4.75,20.34 4.23,24.57 -2.64,19.02c-7.4,-6.08 -11.1,-16.12 -23.78,-66.05c-13.74,-53.63 -15.85,-59.71 -18.76,-52.04c-3.17,8.72 1.06,39.37 10.83,78.2c11.36,44.91 11.1,51.25 -0.79,34.87c-10.3,-14.26 -17.7,-36.99 -24.57,-76.88c-2.91,-16.64 -6.08,-31.17 -7.4,-32.49c-3.17,-3.17 -7.93,3.96 -10.3,15.59c-1.85,8.72 -3.17,10.57 -9.25,11.1c-11.89,1.32 -17.7,13.74 -17.7,36.99c0,21.93 -2.91,29.85 -10.3,27.74c-3.17,-0.79 -6.87,1.32 -10.83,6.34c-5.55,6.87 -5.81,8.98 -4.23,34.34l1.59,26.94001l-7.13,-0.53c-6.08,-0.53 -7.4,0.79 -8.98,8.72c-1.32,6.08 -0.79,14.53 2.11,24.57c3.7,13.21 3.7,17.44 0.79,29.85c-3.17,13.48 -3.17,15.06 2.64,27.74c5.81,11.89 6.08,14 2.91,21.66c-4.49,10.57 -6.6,26.42 -4.49,34.61c0.79,3.44 5.81,10.83 10.83,16.38c8.45,9.25 9.25,11.36 7.93,20.34c-1.59,8.19 -0.53,11.89 6.08,21.66c4.23,6.6 8.72,17.17 9.51,23.51c1.06,6.34 5.28,16.91 9.51,23.78c5.28,8.19 7.93,15.85 7.93,22.72c0,9.25 0.79,10.3 7.93,11.89c7.13,1.58 7.93,2.64 7.93,12.15c0,7.93 1.32,11.1 6.87,14.53c4.49,3.17 6.6,6.6 6.34,11.36c-0.79,11.36 -0.26,12.42 6.6,15.59c4.23,1.85 6.6,5.28 6.6,8.98c0,8.72 2.91,12.15 11.62,13.21c6.6,0.53 8.19,2.38 10.57,11.36c2.91,9.78 3.96,10.57 12.94,11.36c8.98,0.79 9.78,1.32 8.19,7.4c-0.79,3.43 -0.79,9.25 0,12.95c1.85,7.4 7.13,8.19 22.98,3.43c5.81,-1.58 10.83,-2.38 11.62,-1.58c0.79,0.53 0.26,5.02 -1.32,9.51c-2.11,8.45 -2.11,8.72 11.36,15.32c7.66,3.96 21.4,7.92 31.44,9.25c9.77,1.32 22.72,4.75 28.27,7.66c5.81,2.91 15.59001,5.28 21.93001,5.28c8.19,0 12.94,1.58 17.96,6.6c5.28,5.02 10.57,6.87 25.63,8.19l18.49,1.85l-37.25,37.25c-24.31,24.04 -42.53001,44.91 -51.78001,58.92l-14,21.66l-55.76,24.04c-30.65,13.47 -63.4,28.53 -72.92,33.82c-19.28,10.57001 -39.36,28.27001 -48.08,42.27001c-4.75,7.66 -5.02,10.04 -2.38,14.27c2.91,4.75 2.11,6.6 -6.34,15.58c-10.57,10.57 -11.1,18.23 -1.59,18.23c8.19,0 8.72,4.23 1.59,12.68c-10.83,12.95 -7.93,16.38 13.47,16.38c13.21,0 13.74,1.32 7.66,18.49c-2.11,6.07 -3.96,11.89 -3.96,12.42c0,2.91 20.08,-2.64 31.44,-8.19c6.87,-3.43 16.11,-6.87 21.13,-7.92c5.02,-0.79 20.08,-6.87 33.82,-13.47c24.3,-11.36 26.42,-13.21 74.76,-62.08l49.67001,-50.19l15.85,0c8.72,0 22.19,2.38 30.91,5.28c8.45,2.91 17.17,5.28 19.55,5.28s9.51,2.38 15.85,5.55l11.89,5.28l-9.77,7.93c-5.28,4.49 -9.78,10.3 -9.78,13.21c0,6.34 1.59,6.34 9.78,-0.26c8.19,-6.34 13.47,-6.6 21.4,-1.06c7.93,5.55 7.4,7.4 -4.23,20.34c-10.57,11.36 -14.79,19.28 -12.42,22.98c1.85,2.9 30.91,-3.96 43.85,-10.57c5.81,-3.17 12.94,-9.51 15.85,-14.53c3.43,-5.55 8.72,-10.04 14.27,-11.89c22.19,-7.4 27.48,-19.55 17.17,-39.36c-4.76,-9.78001 -11.89,-14.00001 -33.55,-20.34001c-6.34,-1.58 -3.43,-8.98 5.28,-14.26c4.49,-2.91 34.61,-13.74 66.57,-24.04c72.91,-23.51 79.26,-25.89 99.07,-39.36c35.13,-24.04 70.27,-62.35 104.35,-114.92c20.34,-31.17 53.37,-72.39 63.14,-78.73c23.25,-15.33 74.23,-16.38 87.44,-1.85c6.08,6.61 9.25,6.61 9.25,0.26c0,-6.87 -27.74,-59.7 -40.16,-76.61c-12.42,-16.64 -25.1,-22.98 -49.93,-25.63c-24.04,-2.38 -42.01,3.17 -78.99,25.1c-34.58,20.59 -52.81,30.09 -54.4,28.51c-1.06,-1.06 20.08,-61.03 24.83,-69.75c1.59,-2.9 10.83,-15.32 20.34,-27.21c9.77,-12.15 19.28,-25.36 21.4,-29.33c5.02,-10.04 4.49,-22.72 -1.58,-35.93l-5.02,-11.36l7.93,-19.02c13.47,-32.23 17.97,-46.23 32.76,-103.82c7.66,-30.65 21.4,-77.67001 30.12,-104.62001c17.7,-54.42 19.02,-61.82 10.57,-64.46c-16.12,-5.28 -41.74,15.85 -58.39,47.55c-4.75,9.51 -9.51,17.17 -10.57,17.17c-1.32,0 -2.11,-14 -2.11,-31.17c0,-16.91 -1.32,-38.57 -2.91,-48.08c-3.96,-25.36 -9.25,-29.32 -21.4,-16.64z"/>
 </g>
</svg>